<svg width="202" height="202" viewBox="0 0 202 202" fill="none" xmlns="http://www.w3.org/2000/svg">
<g clip-path="url(#clip0_503_24)">
<path d="M202 132.029V155.028C202 162.839 181.171 169.348 155.569 169.348C129.966 169.348 109.571 163.056 109.571 155.246V152.642L109.137 134.417H109.354C112.825 141.143 131.919 146.35 154.917 146.35C177.916 146.35 201.566 139.841 201.566 132.03H202V132.029Z" fill="#E2A63B"/>
<path d="M154.267 46.5435V69.3252H153.833C153.833 77.3532 132.353 83.6453 106.967 83.6453C97.2038 83.8621 87.2231 82.7773 77.6763 80.3906L77.2423 80.8246C72.469 76.9192 67.0448 73.8818 61.1867 71.9291V71.4951L60.5359 47.4114C62.0547 54.7883 82.2329 60.6464 106.751 60.6464C131.268 60.6464 153.833 54.3543 153.833 46.5435H154.267V46.5435Z" fill="#F4B844"/>
<path d="M154.267 46.9775C154.267 54.7883 132.787 61.0804 107.185 61.0804C81.5822 61.0804 62.2719 55.2223 60.7532 47.8454C60.7532 47.6287 60.5364 47.1947 60.5364 46.9775C60.5364 39.1667 81.3654 32.6574 107.185 32.6574C133.004 32.4406 154.267 38.9495 154.267 46.9775Z" fill="#FEDB41"/>
<path d="M109.354 134.416L109.137 129.643L108.703 110.116C110.222 117.492 130.4 123.351 154.918 123.351C179.435 123.351 201.132 117.059 201.783 109.464H202V132.029H201.566C201.566 139.84 180.52 146.35 154.917 146.35C129.315 146.349 112.826 141.142 109.354 134.416Z" fill="#F4B844"/>
<path d="M78.3275 148.953C84.1856 143.529 88.7422 136.586 91.1285 128.992H92.2132C96.9866 129.426 101.76 129.643 106.967 129.643H109.137V134.416L109.571 152.642H107.184C97.6374 152.858 88.3078 151.774 78.9783 149.604L78.3275 148.953Z" fill="#E2A63B"/>
<path d="M109.354 108.38V109.464L109.788 129.643H107.618C102.194 129.643 97.2034 129.426 92.4304 128.992H91.3457C92.8644 124.436 93.5152 119.662 93.5152 114.889C93.5152 111.634 93.0812 108.597 92.4304 105.559H93.5152C98.0714 105.993 102.628 106.21 107.618 106.21L109.571 107.295C109.354 107.729 109.354 108.162 109.354 108.38Z" fill="#F4B844"/>
<path d="M77.6767 80.3907C87.2235 82.7774 97.2038 83.8621 106.968 83.6453C132.353 83.6453 153.833 77.3532 153.833 69.3252H154.267V94.9276C130.617 94.9276 111.307 100.569 108.92 107.729L106.968 106.644C102.194 106.644 97.6382 106.427 93.2988 105.993H92.2141C90.2613 96.0123 85.054 87.1168 77.2432 80.6075L77.6767 80.3907Z" fill="#E2A63B"/>
<path d="M92.6477 105.993C90.4782 96.0123 85.0536 86.8999 77.2428 80.1739C72.4694 75.8345 66.8281 72.797 60.7532 71.0611C56.4138 69.5424 51.6404 68.8916 47.0842 68.8916C21.2647 68.674 0.218462 89.2862 0.00167915 115.105C-0.215104 140.925 20.3967 161.971 46.2163 162.188C58.1497 162.188 69.432 157.848 78.3275 149.82C84.4029 144.179 88.959 137.019 91.3457 129.208C92.8644 124.652 93.5152 120.095 93.5152 115.322C93.5156 112.285 92.6477 109.03 92.6477 105.993Z" fill="#FEDB41"/>
<path d="M201.783 109.03V109.464C201.132 117.059 180.086 123.351 154.918 123.351C129.749 123.351 110.222 117.492 108.703 110.116V109.031C108.703 108.597 108.703 108.163 108.92 107.729C111.307 100.569 130.617 94.928 154.267 94.928H154.917C180.52 94.9276 201.783 101.22 201.783 109.03Z" fill="#FEDB41"/>
<path d="M47.0842 109.681C43.1788 109.681 39.9242 106.427 39.9242 102.521C39.9242 98.6158 43.1788 95.3611 47.0842 95.3611C50.9896 95.3611 54.2443 98.6158 54.2443 102.521C54.2443 104.908 56.197 106.861 58.5837 106.861C60.9704 106.861 62.9231 104.908 62.9231 102.521C62.9231 95.5783 58.1497 89.2862 51.4236 87.3335V85.5976C51.4236 83.2109 49.4709 81.2582 47.0842 81.2582C44.6975 81.2582 42.7448 83.2109 42.7448 85.5976V87.3335C35.802 89.0694 31.0286 95.3615 31.2454 102.521C31.2454 111.2 38.4054 118.36 47.0842 118.36C50.9896 118.36 54.2443 121.615 54.2443 125.52C54.2443 129.425 50.9896 132.68 47.0842 132.68C43.1788 132.68 39.9242 129.425 39.9242 125.52C39.9242 123.133 37.9715 121.181 35.5848 121.181C33.1981 121.181 31.2454 123.133 31.2454 125.52C31.2454 132.68 36.0187 138.755 42.7448 140.708V144.179C42.7448 146.566 44.6975 148.519 47.0842 148.519C49.4709 148.519 51.4236 146.566 51.4236 144.179V140.708C59.8852 138.321 64.6586 129.425 62.0551 120.963C60.1024 114.455 54.0271 109.681 47.0842 109.681Z" fill="#E2A63B"/>
</g>
<defs>
<clipPath id="clip0_503_24">
<rect width="202" height="202" fill="white"/>
</clipPath>
</defs>
</svg>
